<?xml version="1.0"?><svg fill="#f00" xmlns="http://www.w3.org/2000/svg"  viewBox="0 0 24 24" width="48px" height="48px">    <path d="M 14.34375 3 L 16.464844 5.1210938 L 12 9.5859375 L 6.4257812 4.0117188 L 5.0117188 5.4257812 L 12 12.414062 L 17.878906 6.5351562 L 20 8.65625 L 20 3 L 14.34375 3 z M 12 13 C 8.031 13.021 4.131625 14.596891 1.265625 17.462891 C 0.841625 17.886891 0.988625 18.449563 1.265625 18.726562 L 3.4824219 20.941406 C 3.8264219 21.285406 4.3794219 21.293031 4.7324219 20.957031 C 5.1394219 20.569031 5.6631563 20.092031 6.0351562 19.832031 C 6.4381563 19.550031 7.1278125 19.294703 7.5078125 19.095703 C 7.8058125 18.938703 7.9911875 18.628969 7.9921875 18.292969 L 8 15.767578 C 9.477 15.309578 10.684 15.091703 12 15.095703 C 13.316 15.091703 14.523 15.309578 16 15.767578 L 16.009766 18.292969 C 16.010766 18.629969 16.194187 18.939703 16.492188 19.095703 C 16.871188 19.295703 17.562844 19.550031 17.964844 19.832031 C 18.337844 20.092031 18.861531 20.570984 19.269531 20.958984 C 19.621531 21.294984 20.174531 21.287359 20.519531 20.943359 L 22.734375 18.726562 C 23.011375 18.449562 23.158375 17.888844 22.734375 17.464844 C 19.867375 14.597844 15.969 13.021 12 13 z"/></svg>