<?xml version="1.0" encoding="UTF-8"?>
<svg xmlns="http://www.w3.org/2000/svg" xmlns:xlink="http://www.w3.org/1999/xlink" viewBox="0 0 135 135" width="135px" height="135px">
<g id="surface32431774">
<path style=" stroke:none;fill-rule:evenodd;fill:rgb(100%,100%,100%);fill-opacity:1;" d="M 66.019531 2.335938 C 66.269531 7.503906 62.53125 10.652344 60.289062 13.578125 C 57.707031 16.941406 53.222656 21.300781 51.757812 26.347656 C 50.324219 31.328125 47.804688 45.777344 58.828125 52.785156 C 61.289062 54.34375 61.257812 52.410156 63.871094 51.074219 C 68.046875 48.925781 73.804688 55.371094 77.730469 54.03125 C 81.5 52.722656 84.363281 39.613281 84.238281 34.753906 C 83.894531 21.144531 66.925781 4.296875 65.957031 2.304688 Z M 66.019531 2.335938 "/>
<path style=" stroke:none;fill-rule:evenodd;fill:rgb(100%,100%,100%);fill-opacity:1;" d="M 52.628906 85.796875 C 54.21875 90.808594 53.5625 91.742188 55.121094 96.945312 C 56.398438 101.179688 55.152344 106.226562 55.371094 110.742188 C 55.835938 120.175781 64.992188 129.550781 69.976562 131.292969 C 78.507812 126.09375 84.800781 114.074219 84.300781 108.53125 C 83.804688 103.109375 79.289062 93.984375 81.996094 86.980469 C 81.996094 86.980469 78.074219 94.171875 68.480469 93.984375 C 58.859375 93.769531 52.628906 85.796875 52.628906 85.796875 Z M 52.628906 85.796875 "/>
<path style=" stroke:none;fill-rule:evenodd;fill:rgb(100%,100%,100%);fill-opacity:1;" d="M 66.863281 58.984375 C 64.960938 57.113281 59.167969 57.332031 56.957031 60.042969 C 54.15625 63.46875 53.53125 69.074219 54.21875 73.804688 C 55.433594 82.214844 64.652344 88.164062 70.378906 87.445312 C 77.167969 86.605469 79.535156 82.804688 80.378906 80.65625 C 81.996094 76.390625 81.621094 72.1875 80.5625 67.796875 C 79.691406 64.121094 77.386719 57.457031 73.308594 57.175781 C 68.542969 56.863281 71.46875 61.753906 73.246094 63.808594 C 77.324219 68.511719 80.9375 74.894531 76.640625 80.75 C 74.210938 84.082031 68.136719 84.207031 65.148438 83.492188 C 62.128906 82.773438 58.140625 80.316406 58.640625 77.292969 C 61.289062 76.671875 60.851562 71.84375 62.84375 66.953125 C 64.867188 62.066406 68.355469 60.136719 66.832031 58.921875 Z M 66.863281 58.984375 "/>
<path style=" stroke:none;fill-rule:evenodd;fill:rgb(100%,100%,100%);fill-opacity:1;" d="M 68.824219 69.195312 C 66.300781 69.195312 62.6875 72.933594 63.53125 77.324219 C 64.277344 81.0625 68.386719 81.15625 70.007812 80.625 C 71.90625 79.972656 76.859375 75.984375 75.675781 70.878906 C 75.675781 70.878906 75.269531 68.480469 68.824219 69.195312 Z M 68.824219 69.195312 "/>
<path style=" stroke:none;fill-rule:evenodd;fill:rgb(100%,100%,100%);fill-opacity:1;" d="M 53.285156 55.773438 C 50.886719 51.570312 49.453125 50.542969 44.71875 49.234375 C 28.152344 44.378906 2.367188 59.824219 5.355469 74.679688 C 5.015625 76.796875 24.351562 85.296875 26.46875 85.671875 C 28.960938 86.136719 31.546875 86.292969 34.101562 86.230469 C 36.683594 86.199219 39.207031 85.796875 41.699219 85.078125 C 42.945312 84.738281 44.160156 84.332031 45.375 83.894531 L 47.179688 83.242188 C 47.742188 83.054688 48.550781 82.773438 48.644531 82.652344 C 49.203125 82.308594 49.421875 81.4375 49.328125 80.285156 C 49.234375 79.164062 48.925781 77.949219 48.550781 76.734375 C 47.742188 74.273438 47.085938 71.46875 47.210938 68.636719 C 47.273438 65.773438 48.675781 62.78125 50.667969 60.820312 C 52.503906 58.890625 54.28125 57.050781 53.316406 55.773438 Z M 53.285156 55.773438 "/>
<path style=" stroke:none;fill-rule:evenodd;fill:rgb(100%,100%,100%);fill-opacity:1;" d="M 49.859375 86.886719 C 48.550781 87.011719 46.867188 88.628906 46.308594 88.878906 C 42.105469 90.714844 37.773438 89.78125 35.316406 90.871094 C 32.886719 91.992188 21.894531 106.722656 18.964844 114.257812 C 24.011719 116.5625 29.585938 117.25 34.972656 116.316406 C 44.347656 114.632812 51.507812 101.054688 52.164062 92.179688 C 52.347656 89.253906 50.980469 86.699219 49.828125 86.886719 Z M 49.859375 86.886719 "/>
<path style=" stroke:none;fill-rule:evenodd;fill:rgb(100%,100%,100%);fill-opacity:1;" d="M 87.789062 85.828125 C 89.066406 86.261719 94.078125 87.136719 97.195312 87.476562 C 100.308594 87.914062 103.390625 88.347656 106.472656 88.257812 C 109.496094 88.195312 112.734375 87.789062 115.164062 86.730469 C 120.238281 84.082031 131.699219 75.488281 133.410156 69.601562 C 127.464844 60.476562 104.511719 41.230469 92.023438 47.988281 C 89.410156 49.359375 87.789062 48.175781 86.136719 50.761719 C 85.734375 51.414062 85.328125 52.070312 84.953125 52.785156 L 84.363281 53.875 C 84.050781 54.40625 83.863281 54.5625 83.742188 54.839844 C 83.148438 55.929688 83.429688 57.394531 83.957031 58.828125 C 85.015625 61.691406 87.167969 64.464844 87.414062 67.921875 C 87.664062 71.253906 86.980469 74.460938 86.386719 77.605469 C 86.074219 79.195312 85.796875 80.75 85.734375 82.339844 C 85.640625 83.894531 86.511719 85.421875 87.820312 85.859375 Z M 87.789062 85.828125 "/>
<path style=" stroke:none;fill-rule:evenodd;fill:rgb(100%,100%,100%);fill-opacity:1;" d="M 100.960938 93.582031 C 100.339844 93.050781 95.324219 89.90625 87.257812 87.601562 C 86.636719 87.445312 85.921875 87.042969 85.484375 86.417969 C 83.988281 86.730469 83.054688 88.070312 83.242188 91.058594 C 83.894531 100.308594 92.054688 114.351562 101.773438 116.5 C 107.378906 117.746094 113.136719 117.25 118.371094 115.101562 C 115.347656 107.035156 107.59375 99.03125 100.992188 93.582031 Z M 100.960938 93.582031 "/>
</g>
</svg>
