<?xml version="1.0" encoding="UTF-8"?>
<svg xmlns="http://www.w3.org/2000/svg" xmlns:xlink="http://www.w3.org/1999/xlink" viewBox="0 0 24 24" width="24px" height="24px">
<g id="surface19088886">
<path style=" stroke:none;fill-rule:nonzero;fill:rgb(0%,0%,0%);fill-opacity:1;" d="M 12 4 C 8.160156 4.019531 4.386719 5.546875 1.609375 8.316406 L 1 8.929688 L 4.367188 12.296875 L 8 9.480469 L 8 6.613281 C 9.429688 6.171875 10.71875 5.996094 11.992188 6 C 13.269531 5.996094 14.59375 6.171875 16.019531 6.613281 L 16.03125 9.480469 L 19.628906 12.296875 L 23 8.929688 L 22.390625 8.316406 C 19.613281 5.546875 15.839844 4.019531 12 4 Z M 11 11 L 11 16 L 7.953125 16 L 11.953125 20 L 15.953125 16 L 13 16 L 13 11 Z M 11 11 "/>
</g>
</svg>
