<?xml version="1.0" encoding="UTF-8"?>
<svg xmlns="http://www.w3.org/2000/svg" xmlns:xlink="http://www.w3.org/1999/xlink" viewBox="0 0 135 135" width="135px" height="135px">
<g id="surface27728165">
<path style="fill-rule:evenodd;fill:rgb(16.862746%,16.470589%,16.078432%);fill-opacity:1;stroke-width:10;stroke-linecap:butt;stroke-linejoin:round;stroke:rgb(22.745098%,21.568628%,21.568628%);stroke-opacity:1;stroke-miterlimit:10;" d="M 84.11459 2.973471 C 84.11459 3.015604 84.119857 3.052469 84.119857 3.089335 C 84.088258 3.031403 84.056658 2.978738 84.035592 2.936606 Z M 84.119857 3.089335 C 86.026333 6.233441 106.897512 27.246816 107.324099 44.278709 C 107.487361 50.466858 103.832403 67.172228 99.034613 68.841711 C 94.036695 70.54806 86.69518 62.332305 81.376005 65.07089 C 78.042304 66.777239 78.084436 69.2367 74.950863 67.251225 C 60.905081 58.324491 64.117652 39.912772 65.945131 33.566628 C 67.809475 27.141486 73.523639 21.585318 76.815207 17.298379 C 79.653856 13.590756 84.377916 9.609274 84.119857 3.089335 Z M 84.119857 3.089335 " transform="matrix(0.741715,0,0,0.741715,3.7125,3.7125)"/>
<path style="fill-rule:evenodd;fill:rgb(16.862746%,16.470589%,16.078432%);fill-opacity:1;stroke-width:10;stroke-linecap:butt;stroke-linejoin:round;stroke:rgb(22.745098%,21.568628%,21.568628%);stroke-opacity:1;stroke-miterlimit:10;" d="M 87.248163 119.747796 C 99.471733 119.984789 104.469651 110.815795 104.469651 110.815795 C 101.020087 119.747796 106.771116 131.370984 107.408364 138.275378 C 108.040345 145.337768 100.024717 160.652779 89.15464 167.278048 C 82.808496 165.055581 71.143176 153.111137 70.54806 141.092961 C 70.268935 135.336666 71.854155 128.911524 70.226803 123.513351 C 68.246596 116.888081 69.078704 115.69785 67.056364 109.309574 C 67.056364 109.309574 74.987728 119.468671 87.248163 119.747796 Z M 87.248163 119.747796 " transform="matrix(0.741715,0,0,0.741715,3.7125,3.7125)"/>
<path style="fill-rule:evenodd;fill:rgb(16.862746%,16.470589%,16.078432%);fill-opacity:1;stroke-width:10;stroke-linecap:butt;stroke-linejoin:round;stroke:rgb(22.745098%,21.568628%,21.568628%);stroke-opacity:1;stroke-miterlimit:10;" d="M 85.146826 75.066726 C 87.090168 76.61508 82.645234 79.07454 80.06991 85.304821 C 77.531453 91.535103 78.084436 97.686386 74.71387 98.476363 C 74.076622 102.326181 79.153538 105.459755 83.003356 106.376128 C 86.811043 107.287234 94.552813 107.129238 97.644254 102.884431 C 103.121424 95.421787 98.518495 87.290296 93.320449 81.297007 C 91.061117 78.679552 87.327161 72.449271 93.399447 72.849525 C 98.597492 73.202381 101.530938 81.697262 102.642172 86.379189 C 103.995665 91.972223 104.469651 97.328264 102.405179 102.763302 C 101.336078 105.501887 98.318367 110.34181 89.670758 111.410911 C 82.371375 112.327284 70.627058 104.748776 69.078704 94.036695 C 68.204464 88.001274 68.999707 80.859887 72.5704 76.499217 C 75.387983 73.044386 82.766364 72.765261 85.188958 75.145724 Z M 85.146826 75.066726 " transform="matrix(0.741715,0,0,0.741715,3.7125,3.7125)"/>
<path style="fill-rule:evenodd;fill:rgb(16.862746%,16.470589%,16.078432%);fill-opacity:1;stroke-width:10;stroke-linecap:butt;stroke-linejoin:round;stroke:rgb(22.745098%,21.568628%,21.568628%);stroke-opacity:1;stroke-miterlimit:10;" d="M 96.417157 90.302739 C 97.923379 96.812146 91.6141 101.889061 89.191506 102.726436 C 87.1323 103.400549 81.892123 103.27942 80.938885 98.518495 C 79.869783 92.925461 84.472713 88.164536 87.685284 88.164536 C 95.901039 87.248163 96.417157 90.302739 96.417157 90.302739 Z M 96.417157 90.302739 " transform="matrix(0.741715,0,0,0.741715,3.7125,3.7125)"/>
<path style="fill-rule:evenodd;fill:rgb(16.862746%,16.470589%,16.078432%);fill-opacity:1;stroke-width:10;stroke-linecap:butt;stroke-linejoin:round;stroke:rgb(22.745098%,21.568628%,21.568628%);stroke-opacity:1;stroke-miterlimit:10;" d="M 67.925339 71.064178 C 69.157702 72.686264 66.893103 75.02986 64.554772 77.489321 C 62.016314 79.990913 60.230968 83.798599 60.15197 87.448291 C 59.993975 91.061117 60.826083 94.63181 61.858319 97.765384 C 62.332305 99.313738 62.727293 100.856825 62.848423 102.289316 C 62.969553 103.753406 62.690428 104.864639 61.974182 105.30176 C 61.858319 105.459755 60.826083 105.817878 60.109838 106.05487 L 57.808373 106.892246 C 56.260019 107.445229 54.716932 107.961347 53.126446 108.398467 C 49.956007 109.309574 46.738169 109.825692 43.4466 109.867824 C 40.191897 109.946821 36.900328 109.746694 33.724623 109.151578 C 31.02817 108.677592 6.38617 97.844381 6.82329 95.147928 C 3.015604 76.220092 35.868093 56.539144 56.976264 62.727293 C 63.006418 64.396777 64.833897 65.702871 67.888473 71.064178 Z M 67.925339 71.064178 " transform="matrix(0.741715,0,0,0.741715,3.7125,3.7125)"/>
<path style="fill-rule:evenodd;fill:rgb(16.862746%,16.470589%,16.078432%);fill-opacity:1;stroke-width:10;stroke-linecap:butt;stroke-linejoin:round;stroke:rgb(22.745098%,21.568628%,21.568628%);stroke-opacity:1;stroke-miterlimit:10;" d="M 63.485671 110.699932 C 64.94976 110.462939 66.698242 113.712376 66.461249 117.446331 C 65.623874 128.753528 56.502278 146.048747 44.557834 148.192216 C 37.695571 149.382448 30.59105 148.513474 24.165907 145.574761 C 27.894597 135.973913 41.898246 117.204072 44.994954 115.776848 C 48.128528 114.386489 53.642564 115.57672 58.998604 113.23839 C 59.71485 112.922399 61.858319 110.857928 63.522536 110.699932 Z M 63.485671 110.699932 " transform="matrix(0.741715,0,0,0.741715,3.7125,3.7125)"/>
<path style="fill-rule:evenodd;fill:rgb(16.862746%,16.470589%,16.078432%);fill-opacity:1;stroke-width:10;stroke-linecap:butt;stroke-linejoin:round;stroke:rgb(22.745098%,21.568628%,21.568628%);stroke-opacity:1;stroke-miterlimit:10;" d="M 111.890163 109.388571 C 110.22068 108.835588 109.109446 106.892246 109.230576 104.906771 C 109.309574 102.884431 109.667696 100.898957 110.062685 98.876617 C 110.815795 94.868803 111.690036 90.781992 111.374046 86.537185 C 111.058055 82.129116 108.31947 78.600554 106.971243 74.950863 C 106.29713 73.123384 105.939007 71.259039 106.692118 69.868681 C 106.850113 69.515825 107.087106 69.315697 107.487361 68.641584 L 108.240472 67.251225 C 108.714458 66.340119 109.230576 65.50801 109.746694 64.675902 C 111.848031 61.379067 113.912503 62.890555 117.246204 61.142074 C 133.156331 52.53133 162.395994 77.0522 169.974502 88.680654 C 167.794166 96.174898 153.195401 107.129238 146.728127 110.499805 C 143.631419 111.848031 139.502475 112.364149 135.657923 112.443147 C 131.729106 112.564277 127.80029 112.006027 123.834608 111.453043 C 119.86366 111.015923 113.475383 109.904689 111.848031 109.351706 Z M 111.890163 109.388571 " transform="matrix(0.741715,0,0,0.741715,3.7125,3.7125)"/>
<path style="fill-rule:evenodd;fill:rgb(16.862746%,16.470589%,16.078432%);fill-opacity:1;stroke-width:10;stroke-linecap:butt;stroke-linejoin:round;stroke:rgb(22.745098%,21.568628%,21.568628%);stroke-opacity:1;stroke-miterlimit:10;" d="M 128.674531 119.231678 C 137.085147 126.172938 146.96512 136.368902 150.814938 146.643863 C 144.147537 149.382448 136.806022 150.019695 129.664635 148.429209 C 117.28307 145.695891 106.892246 127.80029 106.05487 116.013841 C 105.817878 112.206154 107.008109 110.499805 108.914585 110.104817 C 109.467569 110.894793 110.383942 111.410911 111.173918 111.611038 C 121.448879 114.549751 127.837156 118.557565 128.632399 119.231678 Z M 128.674531 119.231678 " transform="matrix(0.741715,0,0,0.741715,3.7125,3.7125)"/>
<path style=" stroke:none;fill-rule:evenodd;fill:rgb(10.196079%,73.725492%,61.176473%);fill-opacity:1;" d="M 66.101562 5.917969 C 66.335938 10.804688 62.804688 13.777344 60.6875 16.542969 C 58.246094 19.722656 54.007812 23.84375 52.625 28.609375 C 51.269531 33.316406 48.886719 46.972656 59.304688 53.59375 C 61.628906 55.066406 61.597656 53.242188 64.070312 51.976562 C 68.015625 49.945312 73.460938 56.039062 77.167969 54.773438 C 80.726562 53.535156 83.4375 41.144531 83.316406 36.554688 C 82.996094 23.695312 66.957031 7.773438 66.042969 5.890625 Z M 66.101562 5.917969 "/>
<path style=" stroke:none;fill-rule:evenodd;fill:rgb(10.196079%,73.725492%,61.176473%);fill-opacity:1;" d="M 53.449219 84.789062 C 54.949219 89.527344 54.332031 90.410156 55.800781 95.324219 C 57.007812 99.328125 55.832031 104.09375 56.039062 108.363281 C 56.480469 117.277344 65.132812 126.136719 69.839844 127.785156 C 77.902344 122.871094 83.847656 111.511719 83.378906 106.273438 C 82.90625 101.152344 78.640625 92.53125 81.199219 85.90625 C 81.199219 85.90625 77.492188 92.707031 68.425781 92.53125 C 59.332031 92.324219 53.449219 84.789062 53.449219 84.789062 Z M 53.449219 84.789062 "/>
<path style=" stroke:none;fill-rule:evenodd;fill:rgb(10.196079%,73.725492%,61.176473%);fill-opacity:1;" d="M 66.898438 59.449219 C 65.101562 57.683594 59.628906 57.890625 57.539062 60.453125 C 54.890625 63.6875 54.300781 68.984375 54.949219 73.460938 C 56.097656 81.40625 64.808594 87.027344 70.222656 86.347656 C 76.636719 85.554688 78.875 81.964844 79.667969 79.933594 C 81.199219 75.902344 80.847656 71.929688 79.84375 67.78125 C 79.019531 64.308594 76.84375 58.007812 72.988281 57.746094 C 68.484375 57.449219 71.253906 62.070312 72.929688 64.011719 C 76.785156 68.457031 80.199219 74.488281 76.136719 80.023438 C 73.84375 83.171875 68.101562 83.289062 65.277344 82.613281 C 62.421875 81.933594 58.65625 79.609375 59.128906 76.753906 C 61.628906 76.167969 61.21875 71.605469 63.101562 66.984375 C 65.011719 62.363281 68.308594 60.539062 66.867188 59.390625 Z M 66.898438 59.449219 "/>
<path style=" stroke:none;fill-rule:evenodd;fill:rgb(10.196079%,73.725492%,61.176473%);fill-opacity:1;" d="M 68.75 69.105469 C 66.367188 69.105469 62.953125 72.636719 63.746094 76.785156 C 64.453125 80.316406 68.339844 80.40625 69.867188 79.90625 C 71.664062 79.285156 76.34375 75.519531 75.226562 70.691406 C 75.226562 70.691406 74.84375 68.425781 68.75 69.105469 Z M 68.75 69.105469 "/>
<path style=" stroke:none;fill-rule:evenodd;fill:rgb(10.196079%,73.725492%,61.176473%);fill-opacity:1;" d="M 54.066406 56.421875 C 51.800781 52.445312 50.445312 51.476562 45.972656 50.238281 C 30.316406 45.648438 5.949219 60.246094 8.773438 74.285156 C 8.449219 76.285156 26.726562 84.320312 28.726562 84.671875 C 31.082031 85.113281 33.523438 85.261719 35.9375 85.203125 C 38.378906 85.171875 40.765625 84.789062 43.117188 84.113281 C 44.296875 83.789062 45.441406 83.40625 46.589844 82.996094 L 48.296875 82.375 C 48.828125 82.199219 49.59375 81.933594 49.679688 81.816406 C 50.210938 81.492188 50.417969 80.667969 50.328125 79.582031 C 50.238281 78.519531 49.945312 77.375 49.59375 76.226562 C 48.828125 73.902344 48.210938 71.253906 48.328125 68.574219 C 48.386719 65.867188 49.710938 63.042969 51.59375 61.1875 C 53.328125 59.363281 55.007812 57.625 54.09375 56.421875 Z M 54.066406 56.421875 "/>
<path style=" stroke:none;fill-rule:evenodd;fill:rgb(10.196079%,73.725492%,61.176473%);fill-opacity:1;" d="M 50.828125 85.820312 C 49.59375 85.9375 48.003906 87.46875 47.472656 87.703125 C 43.5 89.4375 39.410156 88.554688 37.085938 89.585938 C 34.789062 90.644531 24.402344 104.566406 21.636719 111.6875 C 26.402344 113.867188 31.671875 114.511719 36.761719 113.628906 C 45.621094 112.039062 52.386719 99.210938 53.007812 90.824219 C 53.183594 88.054688 51.886719 85.644531 50.800781 85.820312 Z M 50.828125 85.820312 "/>
<path style=" stroke:none;fill-rule:evenodd;fill:rgb(10.196079%,73.725492%,61.176473%);fill-opacity:1;" d="M 86.671875 84.820312 C 87.878906 85.230469 92.617188 86.054688 95.5625 86.378906 C 98.503906 86.789062 101.417969 87.203125 104.332031 87.113281 C 107.183594 87.054688 110.246094 86.671875 112.542969 85.671875 C 117.339844 83.171875 128.167969 75.046875 129.785156 69.488281 C 124.164062 60.863281 102.476562 42.675781 90.675781 49.0625 C 88.203125 50.359375 86.671875 49.238281 85.113281 51.683594 C 84.730469 52.300781 84.347656 52.917969 83.996094 53.59375 L 83.4375 54.625 C 83.140625 55.125 82.964844 55.273438 82.847656 55.535156 C 82.289062 56.566406 82.554688 57.949219 83.054688 59.304688 C 84.054688 62.011719 86.085938 64.628906 86.320312 67.898438 C 86.554688 71.046875 85.90625 74.078125 85.347656 77.050781 C 85.054688 78.550781 84.789062 80.023438 84.730469 81.523438 C 84.640625 82.996094 85.464844 84.4375 86.703125 84.847656 Z M 86.671875 84.820312 "/>
<path style=" stroke:none;fill-rule:evenodd;fill:rgb(10.196079%,73.725492%,61.176473%);fill-opacity:1;" d="M 99.121094 92.148438 C 98.53125 91.648438 93.792969 88.675781 86.171875 86.496094 C 85.585938 86.347656 84.90625 85.964844 84.496094 85.378906 C 83.082031 85.671875 82.199219 86.9375 82.375 89.761719 C 82.996094 98.503906 90.703125 111.777344 99.886719 113.804688 C 105.183594 114.984375 110.628906 114.511719 115.574219 112.480469 C 112.71875 104.859375 105.390625 97.296875 99.152344 92.148438 Z M 99.121094 92.148438 "/>
</g>
</svg>
